<svg width="59" height="59" viewBox="0 0 59 59" fill="none" xmlns="http://www.w3.org/2000/svg">
<path d="M20.8574 1.84375C20.8574 16.4407 12.9689 29.5 1.84375 29.5C12.9689 29.5 20.8574 42.5602 20.8574 57.1562C20.8574 42.5602 28.7459 29.5 39.8711 29.5C28.7459 29.5 20.8574 16.4407 20.8574 1.84375Z" fill="#DDB292"/>
<path d="M43.3281 29.5C43.3281 36.7994 39.3852 43.3281 33.8208 43.3281C39.3852 43.3281 43.3281 49.8587 43.3281 57.1562C43.3281 49.8587 47.271 43.3281 52.8354 43.3281C47.271 43.3281 43.3281 36.7994 43.3281 29.5Z" fill="#DDB292"/>
<path d="M47.6499 1.84375C47.6499 9.14223 43.707 15.6719 38.1426 15.6719C43.7061 15.6719 47.6499 22.2024 47.6499 29.5C47.6499 22.2024 51.5927 15.6719 57.1572 15.6719C51.5927 15.6719 47.6499 9.14223 47.6499 1.84375Z" fill="#DDB292"/>
</svg>
